<?xml version="1.0" encoding="UTF-8" standalone="no"?>
<!DOCTYPE svg PUBLIC "-//W3C//DTD SVG 1.1//EN"
 "http://www.w3.org/Graphics/SVG/1.1/DTD/svg11.dtd">
<!-- Generated by graphviz version 2.30.1 (20130223.1653)
 -->
<!-- Title: G Pages: 1 -->
<svg width="102pt" height="97pt"
 viewBox="0.00 0.00 102.00 97.00" xmlns="http://www.w3.org/2000/svg" xmlns:xlink="http://www.w3.org/1999/xlink">
<g id="graph0" class="graph" transform="scale(1 1) rotate(0) translate(4 93)">
<title>G</title>
<polygon fill="white" stroke="white" points="-4,5 -4,-93 99,-93 99,5 -4,5"/>
<g id="clust1" class="cluster"><title>cluster_global</title>
<path fill="none" stroke="gray" d="M20,-8C20,-8 74,-8 74,-8 80,-8 86,-14 86,-20 86,-20 86,-69 86,-69 86,-75 80,-81 74,-81 74,-81 20,-81 20,-81 14,-81 8,-75 8,-69 8,-69 8,-20 8,-20 8,-14 14,-8 20,-8"/>
<text text-anchor="middle" x="47" y="-66" font-family="Times,serif" font-size="11.00" fill="gray">global</text>
</g>
<!-- \\OTRSRPC -->
<g id="node1" class="node"><title>\\OTRSRPC</title>
<g id="a_node1"><a xlink:href="otrs_rpc.html" xlink:title="OTRSRPC" target="_parent">
<polygon fill="none" stroke="black" points="78.2079,-52 15.7921,-52 15.7921,-16 78.2079,-16 78.2079,-52"/>
<text text-anchor="middle" x="47" y="-29.6" font-family="Courier,monospace" font-size="11.00">OTRSRPC</text>
</a>
</g>
</g>
</g>
</svg>
